<svg width="14" height="14" viewBox="0 0 14 14" fill="none" xmlns="http://www.w3.org/2000/svg">
<g clip-path="url(#clip0_243_1514)">
<path d="M9.65324 4.34671C9.91359 4.60706 9.91359 5.02917 9.65324 5.28952L7.94282 6.99993L9.65324 8.71035C9.91359 8.9707 9.91359 9.39281 9.65324 9.65316C9.39289 9.91351 8.97078 9.91351 8.71043 9.65316L7.00002 7.94274L5.2896 9.65316C5.02925 9.91351 4.60714 9.91351 4.34679 9.65316C4.08644 9.39281 4.08644 8.9707 4.34679 8.71035L6.05721 6.99993L4.34679 5.28952C4.08644 5.02917 4.08644 4.60706 4.34679 4.34671C4.60714 4.08636 5.02925 4.08636 5.2896 4.34671L7.00002 6.05713L8.71043 4.34671C8.97078 4.08636 9.39289 4.08636 9.65324 4.34671Z" fill="#27272A"/>
<path fill-rule="evenodd" clip-rule="evenodd" d="M7 0.333252C3.3181 0.333252 0.333333 3.31802 0.333333 6.99992C0.333333 10.6818 3.3181 13.6666 7 13.6666C10.6819 13.6666 13.6667 10.6818 13.6667 6.99992C13.6667 3.31802 10.6819 0.333252 7 0.333252ZM1.66667 6.99992C1.66667 4.0544 4.05448 1.66659 7 1.66659C9.94552 1.66659 12.3333 4.0544 12.3333 6.99992C12.3333 9.94544 9.94552 12.3333 7 12.3333C4.05448 12.3333 1.66667 9.94544 1.66667 6.99992Z" fill="#27272A"/>
</g>
<defs>
<clipPath id="clip0_243_1514">
<rect width="13.3333" height="13.3333" fill="white" transform="translate(0.333333 0.333252)"/>
</clipPath>
</defs>
</svg>
