<svg width="24" height="24" viewBox="0 0 24 24" fill="none" xmlns="http://www.w3.org/2000/svg">
<g clip-path="url(#clip0_12_11567)">
<path fill-rule="evenodd" clip-rule="evenodd" d="M19.3808 3.23742L21.8808 7.40409C21.9588 7.53368 22 7.68203 22 7.83325C22.0018 8.47742 21.8165 9.10825 21.4666 9.64913C21.1167 10.19 20.6174 10.6177 20.0291 10.8802C19.4409 11.1427 18.7891 11.2288 18.1528 11.1281C17.5166 11.0273 16.9233 10.7439 16.445 10.3124C15.8357 10.864 15.0432 11.1695 14.2213 11.1695C13.3994 11.1695 12.6068 10.864 11.9975 10.3124C11.3885 10.8629 10.5968 11.1676 9.77584 11.1676C8.95491 11.1676 8.16321 10.8629 7.55417 10.3124C6.94336 10.8642 6.14896 11.1687 5.32584 11.1666H5.31917C4.4371 11.1644 3.59199 10.812 2.9696 10.187C2.3472 9.56193 1.99846 8.71533 2.00001 7.83325C2.00005 7.68203 2.04125 7.53368 2.11917 7.40409L4.61917 3.23742C4.69323 3.11416 4.79791 3.01216 4.92306 2.94134C5.0482 2.87051 5.18954 2.83328 5.33334 2.83325H18.6667C18.8105 2.83328 18.9518 2.87051 19.077 2.94134C19.2021 3.01216 19.3068 3.11416 19.3808 3.23742ZM16.4475 12.3099C17.1412 12.6547 17.9054 12.8338 18.68 12.8333C18.955 12.8296 19.2293 12.8034 19.5 12.7549V21.1666C19.5 21.3876 19.4122 21.5996 19.2559 21.7558C19.0996 21.9121 18.8877 21.9999 18.6667 21.9999H13.6667V16.9999H10.3333V21.9999H5.33333C5.11232 21.9999 4.90036 21.9121 4.74408 21.7558C4.5878 21.5996 4.5 21.3876 4.5 21.1666V12.7583C4.7728 12.8055 5.04898 12.8306 5.32583 12.8333C6.09892 12.8345 6.86174 12.6562 7.55417 12.3124C7.75887 12.4138 7.97018 12.5012 8.18667 12.5741C8.80604 12.7846 9.46101 12.8703 10.1137 12.8261C10.7664 12.7819 11.4038 12.6087 11.9892 12.3166L11.9983 12.3124C12.2033 12.4138 12.4149 12.5012 12.6317 12.5741C13.2513 12.7842 13.9064 12.8695 14.5592 12.8252C15.2119 12.7808 15.8495 12.6077 16.435 12.3158L16.4475 12.3099Z" fill="#1A94FF"/>
</g>
<defs>
<clipPath id="clip0_12_11567">
<rect width="20" height="20" fill="white" transform="translate(2 2)"/>
</clipPath>
</defs>
</svg>
