<svg width="16" height="16" viewBox="0 0 16 16" fill="none" xmlns="http://www.w3.org/2000/svg">
<path fill-rule="evenodd" clip-rule="evenodd" d="M2.33333 6.87842C2.33333 3.81185 4.89592 1.33325 7.99563 1.33325C11.1041 1.33325 13.6667 3.81185 13.6667 6.87842C13.6667 8.42371 13.1047 9.85834 12.1797 11.0743C11.1592 12.4156 9.90143 13.5842 8.48569 14.5015C8.16167 14.7135 7.86924 14.7295 7.51363 14.5015C6.08982 13.5842 4.83205 12.4156 3.82033 11.0743C2.89465 9.85834 2.33333 8.42371 2.33333 6.87842ZM6.12948 7.05109C6.12948 8.07839 6.96777 8.88637 7.99563 8.88637C9.02416 8.88637 9.87051 8.07839 9.87051 7.05109C9.87051 6.03178 9.02416 5.18447 7.99563 5.18447C6.96777 5.18447 6.12948 6.03178 6.12948 7.05109Z" fill="#130F26"/>
</svg>
