<svg width="14" height="14" viewBox="0 0 14 14" fill="none" xmlns="http://www.w3.org/2000/svg">
<path d="M2.66667 8.33325C3.21895 8.33325 3.66667 7.88554 3.66667 7.33325C3.66667 6.78097 3.21895 6.33325 2.66667 6.33325C2.11438 6.33325 1.66667 6.78097 1.66667 7.33325C1.66667 7.88554 2.11438 8.33325 2.66667 8.33325Z" fill="#27272A"/>
<path d="M7 8.33325C7.55229 8.33325 8 7.88554 8 7.33325C8 6.78097 7.55229 6.33325 7 6.33325C6.44772 6.33325 6 6.78097 6 7.33325C6 7.88554 6.44772 8.33325 7 8.33325Z" fill="#27272A"/>
<path d="M12.3333 7.33325C12.3333 7.88554 11.8856 8.33325 11.3333 8.33325C10.781 8.33325 10.3333 7.88554 10.3333 7.33325C10.3333 6.78097 10.781 6.33325 11.3333 6.33325C11.8856 6.33325 12.3333 6.78097 12.3333 7.33325Z" fill="#27272A"/>
</svg>
