<svg width="20" height="21" viewBox="0 0 20 21" fill="none" xmlns="http://www.w3.org/2000/svg">
<path fill-rule="evenodd" clip-rule="evenodd" d="M13.7614 18.3385H6.80492C4.24962 18.3385 2.28928 17.4329 2.84611 13.788L3.49447 8.84836C3.83772 7.02967 5.02002 6.33363 6.0574 6.33363H14.5395C15.5921 6.33363 16.7058 7.08206 17.1024 8.84836L17.7508 13.788C18.2237 17.0212 16.3167 18.3385 13.7614 18.3385Z" stroke="#130F26" stroke-width="1.5" stroke-linecap="round" stroke-linejoin="round"/>
<path d="M13.8759 6.15401C13.8759 4.20301 12.2639 2.62142 10.2756 2.62142V2.62142C9.31805 2.61743 8.39838 2.98786 7.71989 3.65078C7.04139 4.3137 6.65998 5.21451 6.65999 6.15401H6.65999" stroke="#130F26" stroke-width="1.5" stroke-linecap="round" stroke-linejoin="round"/>
<path d="M12.7469 9.83629H12.7088" stroke="#130F26" stroke-width="1.5" stroke-linecap="round" stroke-linejoin="round"/>
<path d="M7.88806 9.83629H7.84992" stroke="#130F26" stroke-width="1.5" stroke-linecap="round" stroke-linejoin="round"/>
</svg>
