<svg width="21" height="20" viewBox="0 0 21 20" fill="none" xmlns="http://www.w3.org/2000/svg">
<path fill-rule="evenodd" clip-rule="evenodd" d="M10.144 1.20457C10.502 0.931811 10.998 0.931811 11.356 1.20457L19.356 7.29981C19.6043 7.48895 19.75 7.78315 19.75 8.09524V18C19.75 18.5523 19.3023 19 18.75 19H13.15C12.5977 19 12.15 18.5523 12.15 18V13.6667H9.35V18C9.35 18.5523 8.90228 19 8.35 19H2.75C2.19772 19 1.75 18.5523 1.75 18V8.09524C1.75 7.78315 1.89571 7.48895 2.14396 7.29981L10.144 1.20457ZM3.75 8.59051V17H7.35V12.6667C7.35 12.1144 7.79772 11.6667 8.35 11.6667H13.15C13.7023 11.6667 14.15 12.1144 14.15 12.6667V17H17.75V8.59051L10.75 3.25718L3.75 8.59051Z" fill="#808089"/>
</svg>
