<svg width="21" height="20" viewBox="0 0 21 20" fill="none" xmlns="http://www.w3.org/2000/svg">
<g clip-path="url(#clip0_243_1411)">
<path fill-rule="evenodd" clip-rule="evenodd" d="M2.86786 1.45233C3.05261 1.17008 3.36721 1 3.70455 1H16.7955C17.1328 1 17.4474 1.17008 17.6321 1.45233L20.0867 5.20221C20.1928 5.3643 20.2495 5.55371 20.25 5.74744C20.2518 6.50255 19.9747 7.22408 19.4826 7.79619C18.9922 8.36644 18.319 8.7543 17.581 8.91509C17.4714 8.93897 17.3609 8.95773 17.25 8.97138V18C17.25 18.5523 16.8023 19 16.25 19H4.25C3.69772 19 3.25 18.5523 3.25 18V8.97138C3.13909 8.95773 3.02863 8.93897 2.91902 8.91509C2.18105 8.75431 1.50783 8.36644 1.01739 7.79619C0.525347 7.22407 0.248164 6.50255 0.250009 5.74744C0.250483 5.55371 0.307215 5.3643 0.413312 5.20221L2.86786 1.45233ZM9.25 17H11.25V14H9.25V17ZM13.25 17V13C13.25 12.4477 12.8023 12 12.25 12H8.25C7.69772 12 7.25 12.4477 7.25 13V17H5.25V8.65209C5.47586 8.54509 5.68877 8.41487 5.88464 8.26384C6.0129 8.36313 6.14863 8.45352 6.29072 8.53428C6.83036 8.84096 7.44572 9 8.06832 9C8.69092 9 9.30628 8.84096 9.84592 8.53428C9.98727 8.45394 10.1223 8.36407 10.25 8.26539C10.3777 8.36407 10.5127 8.45394 10.6541 8.53428C11.1937 8.84096 11.8091 9 12.4317 9C13.0543 9 13.6696 8.84096 14.2093 8.53428C14.3514 8.45352 14.4871 8.36313 14.6154 8.26384C14.8112 8.41487 15.0241 8.54509 15.25 8.65209V17H13.25ZM4.24516 3L2.27945 6.00308C2.32056 6.17484 2.4049 6.34228 2.53373 6.49207C2.72647 6.71617 3.00916 6.88781 3.34478 6.96094C3.68072 7.03413 4.03291 7.00019 4.33973 6.86899C4.64581 6.73811 4.87578 6.5245 5.00917 6.28047C5.18487 5.95903 5.52226 5.75939 5.88858 5.7601C6.2549 5.76081 6.59151 5.96176 6.76596 6.28387C6.87424 6.4838 7.04813 6.6643 7.27893 6.79547C7.5102 6.9269 7.78387 7 8.06832 7C8.35277 7 8.62644 6.9269 8.85771 6.79547C9.08851 6.6643 9.2624 6.4838 9.37068 6.28387C9.54546 5.96115 9.88299 5.7601 10.25 5.7601C10.617 5.7601 10.9545 5.96115 11.1293 6.28387C11.2376 6.4838 11.4115 6.6643 11.6423 6.79547C11.8736 6.9269 12.1472 7 12.4317 7C12.7161 7 12.9898 6.9269 13.2211 6.79547C13.4519 6.6643 13.6258 6.4838 13.734 6.28387C13.9085 5.96176 14.2451 5.76081 14.6114 5.7601C14.9777 5.75939 15.3151 5.95903 15.4908 6.28047C15.6242 6.5245 15.8542 6.73811 16.1603 6.86899C16.4671 7.00019 16.8193 7.03413 17.1552 6.96094C17.4908 6.88781 17.7735 6.71618 17.9663 6.49207C18.0951 6.34228 18.1794 6.17484 18.2205 6.00308L16.2548 3H4.24516Z" fill="#808089"/>
</g>
<defs>
<clipPath id="clip0_243_1411">
<rect width="20" height="20" fill="white" transform="translate(0.25)"/>
</clipPath>
</defs>
</svg>
