<svg width="21" height="20" viewBox="0 0 21 20" fill="none" xmlns="http://www.w3.org/2000/svg">
<path d="M10.1136 11.6364C10.1136 11.0841 10.5614 10.6364 11.1136 10.6364H15.2046C15.7568 10.6364 16.2046 11.0841 16.2046 11.6364C16.2046 12.1887 15.7568 12.6364 15.2046 12.6364H11.1136C10.5614 12.6364 10.1136 12.1887 10.1136 11.6364Z" fill="#808089"/>
<path d="M7.02271 10.6364C6.47042 10.6364 6.02271 11.0841 6.02271 11.6364C6.02271 12.1887 6.47042 12.6364 7.02271 12.6364H7.84089C8.39317 12.6364 8.84089 12.1887 8.84089 11.6364C8.84089 11.0841 8.39317 10.6364 7.84089 10.6364H7.02271Z" fill="#808089"/>
<path d="M10.1136 14.9091C10.1136 14.3568 10.5614 13.9091 11.1136 13.9091H12.75C13.3023 13.9091 13.75 14.3568 13.75 14.9091C13.75 15.4614 13.3023 15.9091 12.75 15.9091H11.1136C10.5614 15.9091 10.1136 15.4614 10.1136 14.9091Z" fill="#808089"/>
<path d="M7.02271 13.9091C6.47042 13.9091 6.02271 14.3568 6.02271 14.9091C6.02271 15.4614 6.47042 15.9091 7.02271 15.9091H7.84089C8.39317 15.9091 8.84089 15.4614 8.84089 14.9091C8.84089 14.3568 8.39317 13.9091 7.84089 13.9091H7.02271Z" fill="#808089"/>
<path d="M10.1136 8.36363C10.1136 7.81135 10.5614 7.36363 11.1136 7.36363H13.5682C14.1205 7.36363 14.5682 7.81135 14.5682 8.36363C14.5682 8.91592 14.1205 9.36363 13.5682 9.36363H11.1136C10.5614 9.36363 10.1136 8.91592 10.1136 8.36363Z" fill="#808089"/>
<path d="M7.02271 7.36363C6.47042 7.36363 6.02271 7.81135 6.02271 8.36363C6.02271 8.91592 6.47042 9.36363 7.02271 9.36363H7.84089C8.39317 9.36363 8.84089 8.91592 8.84089 8.36363C8.84089 7.81135 8.39317 7.36363 7.84089 7.36363H7.02271Z" fill="#808089"/>
<path d="M10.1136 5.09091C10.1136 4.53863 10.5614 4.09091 11.1136 4.09091H15.2046C15.7568 4.09091 16.2046 4.53863 16.2046 5.09091C16.2046 5.6432 15.7568 6.09091 15.2046 6.09091H11.1136C10.5614 6.09091 10.1136 5.6432 10.1136 5.09091Z" fill="#808089"/>
<path d="M7.02271 4.09091C6.47042 4.09091 6.02271 4.53863 6.02271 5.09091C6.02271 5.6432 6.47042 6.09091 7.02271 6.09091H7.84089C8.39317 6.09091 8.84089 5.6432 8.84089 5.09091C8.84089 4.53863 8.39317 4.09091 7.84089 4.09091H7.02271Z" fill="#808089"/>
<path fill-rule="evenodd" clip-rule="evenodd" d="M2.75 1C2.75 0.447715 3.19772 0 3.75 0H18.4773C19.0296 0 19.4773 0.447715 19.4773 1V19C19.4773 19.5523 19.0296 20 18.4773 20H3.75C3.19772 20 2.75 19.5523 2.75 19V1ZM4.75 2V18H17.4773V2H4.75Z" fill="#808089"/>
</svg>
