<svg width="12" height="12" viewBox="0 0 12 12" fill="none" xmlns="http://www.w3.org/2000/svg">
<mask id="mask0_3_1933" style="mask-type:luminance" maskUnits="userSpaceOnUse" x="1" y="1" width="10" height="10">
<path fill-rule="evenodd" clip-rule="evenodd" d="M1 1H10.7384V10.7385H1V1Z" fill="white"/>
</mask>
<g mask="url(#mask0_3_1933)">
<path fill-rule="evenodd" clip-rule="evenodd" d="M5.8694 1.75C3.5979 1.75 1.7499 3.5975 1.7499 5.869C1.7499 8.1405 3.5979 9.9885 5.8694 9.9885C8.1404 9.9885 9.9884 8.1405 9.9884 5.869C9.9884 3.5975 8.1404 1.75 5.8694 1.75ZM5.8694 10.7385C3.1844 10.7385 0.9999 8.554 0.9999 5.869C0.9999 3.184 3.1844 1 5.8694 1C8.5544 1 10.7384 3.184 10.7384 5.869C10.7384 8.554 8.5544 10.7385 5.8694 10.7385Z" fill="black"/>
</g>
<mask id="mask1_3_1933" style="mask-type:luminance" maskUnits="userSpaceOnUse" x="8" y="8" width="4" height="4">
<path fill-rule="evenodd" clip-rule="evenodd" d="M8.61997 8.85347H11.132V11.3608H8.61997V8.85347Z" fill="white"/>
</mask>
<g mask="url(#mask1_3_1933)">
<path fill-rule="evenodd" clip-rule="evenodd" d="M10.7571 11.3608C10.6616 11.3608 10.5656 11.3243 10.4921 11.2513L8.7301 9.49435C8.5836 9.34785 8.5831 9.11035 8.7296 8.96385C8.8756 8.81635 9.1131 8.81735 9.2601 8.96285L11.0221 10.7203C11.1686 10.8668 11.1691 11.1038 11.0226 11.2503C10.9496 11.3243 10.8531 11.3608 10.7571 11.3608Z" fill="black"/>
</g>
</svg>
