<svg width="21" height="20" viewBox="0 0 21 20" fill="none" xmlns="http://www.w3.org/2000/svg">
<g clip-path="url(#clip0_243_1427)">
<path fill-rule="evenodd" clip-rule="evenodd" d="M6.25 8.2C6.25 5.94229 7.98115 4 10.25 4C12.5188 4 14.25 5.94229 14.25 8.2V9.8C14.25 12.0577 12.5188 14 10.25 14C7.98115 14 6.25 12.0577 6.25 9.8V8.2ZM10.25 6C9.20535 6 8.25 6.92331 8.25 8.2V9.8C8.25 11.0767 9.20535 12 10.25 12C11.2947 12 12.25 11.0767 12.25 9.8V8.2C12.25 6.92331 11.2947 6 10.25 6Z" fill="#808089"/>
<path fill-rule="evenodd" clip-rule="evenodd" d="M10.25 0C4.72715 0 0.25 4.47715 0.25 10C0.25 15.5228 4.72715 20 10.25 20C15.7728 20 20.25 15.5228 20.25 10C20.25 4.47715 15.7728 0 10.25 0ZM2.25 10C2.25 5.58172 5.83172 2 10.25 2C14.6683 2 18.25 5.58172 18.25 10C18.25 12.3905 17.2015 14.5362 15.5392 16.0021C14.4619 15.3714 13.0069 15 11.4785 15H9.01988C7.48537 15 6.03878 15.3594 4.95746 15.9992C3.29713 14.5333 2.25 12.389 2.25 10ZM6.96113 17.2949C7.96435 17.7479 9.07773 18 10.25 18C11.4188 18 12.5291 17.7493 13.53 17.2988C12.9364 17.1146 12.2359 17 11.4785 17H9.01988C8.25111 17 7.55113 17.1121 6.96113 17.2949Z" fill="#808089"/>
</g>
<defs>
<clipPath id="clip0_243_1427">
<rect width="20" height="20" fill="white" transform="translate(0.25)"/>
</clipPath>
</defs>
</svg>
